# xmcd
#
# Track frame offsets:
#	165
#	18850
#	49527
#
# Disc length: 1098 seconds
#
# Revision: 1
# Processed by: cddbd v1.5PL3 Copyright (c) Steve Scherf et al.
# Submitted via: EasyCDDAExtractor 6.5.7.1
#
DISCID=16044803
DTITLE=Yazz - Stand Up For Your Love Rights
DYEAR=2002
DGENRE=Tekkno
TTITLE0=Stand Up For Your Love Rights (7" Version)
TTITLE1=Stand Up For Your Love Rights (12" Yazzid Mix)
TTITLE2=Stand Up For Your Love Rights (Extended 12")
EXTD=Key 2 Audio Sucks :-)
EXTT0=
EXTT1=
EXTT2=
PLAYORDER=
